<svg xmlns="http://www.w3.org/2000/svg" xmlns:xlink="http://www.w3.org/1999/xlink" width="72.83333349890177" height="9.916666749450997" version="1.1" style=""><rect id="backgroundrect" width="100%" height="100%" x="0" y="0" fill="none" stroke="none" class="" style=""/>
    <!-- Generator: Sketch 41.2 (35397) - http://www.bohemiancoding.com/sketch -->
    <title>Line Copy</title>
    <desc>Created with Sketch.</desc>
    <defs/>
    
<g class="currentLayer" style=""><title>Layer 1</title><g id="Page-1" stroke="#0bd50b" stroke-width="1" fill="none" fill-rule="evenodd" stroke-linecap="square" class="" stroke-opacity="1">
        <path d="M2.5,4.5 C2.5,4.5 4.57503686,7.5 6.65007372,7.5 C8.72511059,7.5 10.8001474,4.5 10.8001474,4.5 C10.8001474,4.5 12.9202938,1.5 14.9502212,1.5 C16.9801485,1.5 19.0100759,4.5 19.0100759,4.5 C19.0100759,4.5 21.0851128,7.5 23.1601496,7.5 C25.2351865,7.5 27.3102234,4.5 27.3102234,4.5 C27.3102234,4.5 29.4303697,1.5 31.4602971,1.5 C33.4902244,1.5 35.5201518,4.5 35.5201518,4.5 C35.5201518,4.5 37.5951887,7.5 39.6702255,7.5 C41.7452624,7.5 43.8202993,4.5 43.8202993,4.5 C43.8202993,4.5 45.9404456,1.5 47.970373,1.5 C50.0003004,1.5 52.0302277,4.5 52.0302277,4.5 C52.0302277,4.5 54.1052646,7.5 56.1803014,7.5 C58.2553383,7.5 60.3303752,4.5 60.3303752,4.5 C60.3303752,4.5 62.4460848,1.5 64.4804489,1.5 C66.514813,1.5 68.549177,4.5 68.549177,4.5" id="Line-Copy" stroke="#0bd50b" stroke-width="3" stroke-opacity="1"/>
    </g></g></svg>